<?xml version="1.0" encoding="utf-8"?>
<!-- Generator: Adobe Illustrator 24.3.0, SVG Export Plug-In . SVG Version: 6.00 Build 0)  -->
<svg version="1.1" id="Layer_1" xmlns="http://www.w3.org/2000/svg" xmlns:xlink="http://www.w3.org/1999/xlink" x="0px" y="0px"
	 viewBox="0 0 1600 340" style="enable-background:new 0 0 1600 340;" xml:space="preserve">
<style type="text/css">
	.st0{fill:#100D23;}
	.st1{fill:url(#SVGID_1_);}
	.st2{fill:url(#SVGID_2_);}
	.st3{fill:url(#SVGID_3_);}
	.st4{fill:#FFFFFF;}
	.st5{fill:url(#SVGID_4_);}
	.st6{fill:url(#SVGID_5_);}
	.st7{fill:url(#SVGID_6_);}
	.st8{fill:url(#SVGID_7_);}
	.st9{fill:url(#SVGID_8_);}
	.st10{fill:url(#SVGID_9_);}
	.st11{fill:url(#SVGID_10_);}
	.st12{fill:url(#SVGID_11_);}
	.st13{fill:url(#SVGID_12_);}
</style>
<g>
	<linearGradient id="SVGID_1_" gradientUnits="userSpaceOnUse" x1="29.7744" y1="147.2442" x2="300.1883" y2="37.6998">
		<stop  offset="0" style="stop-color:#7879F6"/>
		<stop  offset="1" style="stop-color:#FBCBF5"/>
	</linearGradient>
	<path class="st1" d="M286.99,0.61l-44.57,104.5L76.24,171.5l-8.87,3.56c-56-35.53-64.74-60.37-64.87-60.77l73.64-29.41L286.99,0.61
		z"/>
	<g>
		<linearGradient id="SVGID_2_" gradientUnits="userSpaceOnUse" x1="268.5613" y1="330.3905" x2="-53.4879" y2="73.0669">
			<stop  offset="0" style="stop-color:#7879F6"/>
			<stop  offset="1" style="stop-color:#FBCBF5"/>
		</linearGradient>
		<path class="st2" d="M261.08,315.59l-0.72-2.47l-13.23-16.37l-9.85,2.97c-1.98,0.58-3.96,1.17-5.85,1.71
			c6.25,7.92,6.43,20.96,6.43,20.96c4.27-1.35,10.21,1.26,15.83,4.9c7.92,5.08,15.12,12.1,15.12,12.1L261.08,315.59z"/>
		<linearGradient id="SVGID_3_" gradientUnits="userSpaceOnUse" x1="256.7514" y1="345.1709" x2="-65.2978" y2="87.8473">
			<stop  offset="0" style="stop-color:#7879F6"/>
			<stop  offset="1" style="stop-color:#FBCBF5"/>
		</linearGradient>
		<path class="st3" d="M241.01,289.19c-1.17-1.39-2.43-2.79-3.69-4.23c-17.23-19.25-41.25-40.4-74.27-59.29
			c-0.99-0.58-1.98-1.12-3.01-1.71c-2.34-1.3-4.68-2.61-7.11-3.87c-1.39-0.76-2.83-1.48-4.27-2.25l-5.13-2.56
			c-1.03-0.49-2.02-0.99-3.01-1.44c-1.89-0.9-3.78-1.8-5.67-2.7c-11.56-5.31-22.13-10.48-31.76-15.56c-0.9-0.45-1.75-0.9-2.65-1.35
			c-0.9-0.5-1.8-0.99-2.7-1.48c-1.48-0.76-2.97-1.57-4.36-2.34c-0.99-0.54-1.98-1.08-2.92-1.62c-1.53-0.85-3.01-1.71-4.5-2.52
			c-6.7-3.82-12.91-7.56-18.58-11.2C11.36,139.52,2.64,114.69,2.5,114.28c0,0,5.49,67.57,42.06,106.57c0,0,32.21,3.01,52.14-3.91
			c0,0-15.16,13.05-46.2,10.12c0.72,0.9,13.05,15.02,33.78,29.06c0,0,12.91,4.09,58.93-10.66c-1.53,0.94-26.59,16.28-50.02,16.15
			l37.16,23.57c0,0,27.53,2.34,61.32-11.56c-0.76,0.9-13.9,15.03-46.16,15.92h-1.08c-0.72,0-1.44,0.04-2.16,0.04
			c0,0,0.04,0,0.09,0.05c0.05,0,0.14,0.09,0.32,0.18c0.09,0.09,0.22,0.18,0.36,0.22c0.13,0.09,0.31,0.18,0.49,0.32
			c0.4,0.22,0.9,0.49,1.53,0.85c7.2,3.69,28.48,12.15,64.96,5.85c7.33-1.21,15.29-3.1,23.89-5.71L241.01,289.19z"/>
	</g>
</g>
<g>
	<path class="st4" d="M423.33,267.79c-18.69,0-34.67-3.27-47.94-9.82c-13.27-6.55-23.36-16.72-30.26-30.52
		c-6.9-13.8-10.35-31.35-10.35-52.66c0-31.44,7.73-54.79,23.19-70.08c15.46-15.28,37.24-22.92,65.36-22.92
		c15.37,0,29.17,2.62,41.39,7.86c12.22,5.24,21.88,13.1,28.95,23.58c7.07,10.48,10.61,23.67,10.61,39.56h-39.3
		c0-8.38-1.7-15.45-5.11-21.22c-3.41-5.76-8.21-10.17-14.41-13.23c-6.2-3.05-13.41-4.59-21.61-4.59c-11.18,0-20.39,2.19-27.64,6.55
		c-7.25,4.37-12.58,10.78-15.98,19.26c-3.41,8.47-5.11,18.82-5.11,31.04v8.13c0,12.57,1.74,23.1,5.24,31.56
		c3.49,8.47,8.78,14.85,15.85,19.12c7.07,4.28,16.2,6.42,27.38,6.42c8.73,0,16.33-1.48,22.79-4.46c6.46-2.97,11.44-7.33,14.93-13.1
		c3.49-5.77,5.24-12.84,5.24-21.22h37.72c0,15.89-3.45,29.08-10.35,39.56c-6.9,10.48-16.46,18.3-28.69,23.44
		C453.02,265.22,439.05,267.79,423.33,267.79z"/>
	<path class="st4" d="M595.19,267.79c-15.02,0-27.77-2.58-38.25-7.73c-10.48-5.15-18.43-13.1-23.84-23.84
		c-5.42-10.74-8.12-24.24-8.12-40.48c0-16.59,2.71-30.17,8.12-40.74c5.41-10.57,13.36-18.42,23.84-23.58
		c10.48-5.15,23.23-7.73,38.25-7.73c15.37,0,28.25,2.58,38.64,7.73c10.39,5.16,18.29,13.01,23.71,23.58
		c5.41,10.57,8.12,24.15,8.12,40.74c0,16.24-2.71,29.73-8.12,40.48c-5.41,10.74-13.32,18.69-23.71,23.84
		C623.43,265.22,610.55,267.79,595.19,267.79z M595.19,239.5c8.03,0,14.45-1.48,19.26-4.45c4.8-2.97,8.34-7.51,10.61-13.62
		c2.27-6.11,3.41-13.62,3.41-22.53v-6.29c0-8.91-1.14-16.41-3.41-22.53c-2.27-6.11-5.81-10.7-10.61-13.76
		c-4.81-3.05-11.22-4.59-19.26-4.59c-7.86,0-14.19,1.53-18.99,4.59c-4.81,3.06-8.34,7.64-10.61,13.76
		c-2.27,6.11-3.41,13.62-3.41,22.53v6.29c0,8.91,1.13,16.42,3.41,22.53c2.27,6.12,5.8,10.66,10.61,13.62
		C580.99,238.02,587.33,239.5,595.19,239.5z"/>
	<path class="st4" d="M741.1,267.79c-11.35,0-21.18-2.58-29.47-7.73c-8.3-5.15-14.72-13.05-19.26-23.71
		c-4.54-10.65-6.81-24.28-6.81-40.87c0-16.59,2.31-30.17,6.94-40.74c4.63-10.57,11-18.38,19.12-23.44c8.12-5.07,17.51-7.6,28.16-7.6
		c5.93,0,11.48,0.66,16.64,1.97c5.15,1.31,9.69,3.37,13.62,6.15c3.93,2.8,7.29,6.2,10.09,10.22h1.57v-66.8h36.41v189.41h-29.86
		l-2.88-18.6h-1.83c-4.54,7.33-10.48,12.79-17.81,16.37S750.18,267.79,741.1,267.79z M752.63,237.93c6.81,0,12.35-1.57,16.64-4.72
		c4.28-3.15,7.47-7.68,9.56-13.62c2.1-5.93,3.14-13.01,3.14-21.22v-4.72c0-6.11-0.57-11.7-1.7-16.77c-1.14-5.07-2.93-9.3-5.37-12.71
		c-2.45-3.41-5.5-6.02-9.17-7.86c-3.67-1.83-8.04-2.75-13.1-2.75c-7.34,0-13.19,1.44-17.55,4.32c-4.37,2.88-7.51,7.25-9.43,13.1
		c-1.92,5.86-2.88,13.15-2.88,21.88v6.03c0,8.74,0.96,15.98,2.88,21.74c1.92,5.77,5.06,10.09,9.43,12.97
		C739.44,236.49,745.3,237.93,752.63,237.93z"/>
	<path class="st4" d="M914.27,267.79c-15.2,0-27.95-2.58-38.25-7.73c-10.31-5.15-18.08-13.05-23.32-23.71
		c-5.24-10.65-7.86-24.19-7.86-40.61c0-16.59,2.62-30.17,7.86-40.74c5.24-10.57,12.97-18.42,23.18-23.58
		c10.22-5.15,22.75-7.73,37.59-7.73c13.97,0,25.76,2.49,35.37,7.47c9.6,4.98,16.85,12.66,21.74,23.05
		c4.89,10.39,7.34,23.8,7.34,40.21v9.43h-96.15c0.35,8.03,1.61,14.84,3.8,20.43c2.18,5.59,5.59,9.74,10.22,12.45
		c4.63,2.71,10.78,4.06,18.47,4.06c4.19,0,7.99-0.52,11.4-1.57c3.41-1.05,6.33-2.62,8.78-4.71c2.44-2.1,4.36-4.72,5.76-7.86
		c1.39-3.15,2.09-6.72,2.09-10.74h35.63c0,8.74-1.57,16.33-4.72,22.79c-3.15,6.47-7.51,11.84-13.1,16.11
		c-5.59,4.28-12.27,7.51-20.04,9.69C932.3,266.7,923.7,267.79,914.27,267.79z M882.31,180.82h58.16c0-5.24-0.65-9.78-1.96-13.62
		s-3.1-6.99-5.37-9.43c-2.27-2.44-5.02-4.23-8.25-5.37c-3.24-1.13-6.86-1.7-10.87-1.7c-6.64,0-12.18,1.09-16.64,3.27
		c-4.45,2.19-7.86,5.5-10.22,9.96C884.8,168.38,883.18,174.01,882.31,180.82z"/>
	<path class="st4" d="M1178.6,298.71l-29.34-31.44c-1.22,0.18-2.53,0.31-3.93,0.39c-1.4,0.09-2.71,0.13-3.93,0.13
		c-18.69,0-34.8-3.44-48.33-10.35c-13.54-6.9-23.93-17.24-31.18-31.04c-7.25-13.8-10.87-31-10.87-51.61c0-21.13,3.67-38.55,11-52.27
		c7.34-13.71,17.9-23.92,31.7-30.65c13.79-6.72,30.21-10.09,49.25-10.09c19.39,0,35.93,3.36,49.64,10.09
		c13.71,6.72,24.23,16.94,31.57,30.65c7.33,13.72,11,31.14,11,52.27c0,21.84-4.02,39.74-12.05,53.7
		c-8.03,13.98-19.39,24.28-34.06,30.91l40.35,39.3H1178.6z M1142.97,235.83c8.55,0,16.06-1.22,22.53-3.67
		c6.46-2.44,11.88-6.11,16.24-11c4.36-4.88,7.68-10.87,9.96-17.94c2.27-7.07,3.41-15.15,3.41-24.23v-8.13
		c0-9.25-1.14-17.46-3.41-24.62c-2.27-7.16-5.59-13.14-9.96-17.94c-4.37-4.8-9.78-8.42-16.24-10.87
		c-6.46-2.44-13.97-3.67-22.53-3.67c-8.39,0-15.81,1.22-22.27,3.67c-6.46,2.45-11.88,6.07-16.24,10.87
		c-4.37,4.8-7.64,10.79-9.82,17.94c-2.19,7.16-3.28,15.37-3.28,24.62v8.13c0,9.08,1.09,17.16,3.28,24.23
		c2.18,7.07,5.46,13.06,9.82,17.94c4.36,4.89,9.78,8.56,16.24,11C1127.16,234.61,1134.59,235.83,1142.97,235.83z"/>
	<path class="st4" d="M1308.28,267.79c-13.97,0-25.06-3.84-33.27-11.52c-8.21-7.69-12.31-20.08-12.31-37.2v-92.21h36.41v86.19
		c0,4.55,0.52,8.34,1.57,11.4c1.05,3.06,2.57,5.54,4.58,7.47c2.01,1.93,4.49,3.32,7.47,4.19c2.97,0.88,6.29,1.31,9.96,1.31
		c5.41,0,10.3-1.31,14.67-3.93c4.37-2.62,7.77-6.24,10.22-10.87c2.44-4.62,3.67-9.82,3.67-15.59v-80.17h36.42v137.8h-29.87
		l-2.62-18.86h-1.83c-3.32,4.37-7.2,8.21-11.66,11.53c-4.45,3.32-9.48,5.89-15.06,7.73
		C1321.03,266.88,1314.92,267.79,1308.28,267.79z"/>
	<path class="st4" d="M1421.19,106.68V75.24h36.41v31.44H1421.19z M1421.19,264.65v-137.8h36.41v137.8H1421.19z"/>
	<path class="st4" d="M1491.14,264.65V75.24h36.41v189.41H1491.14z"/>
	<path class="st4" d="M1561.09,264.65V75.24h36.41v189.41H1561.09z"/>
</g>
</svg>
