<?xml version="1.0" encoding="utf-8"?>
<!-- Generator: Adobe Illustrator 24.3.0, SVG Export Plug-In . SVG Version: 6.00 Build 0)  -->
<svg version="1.1" id="Layer_1" xmlns="http://www.w3.org/2000/svg" xmlns:xlink="http://www.w3.org/1999/xlink" x="0px" y="0px"
	 viewBox="0 0 1200 770" style="enable-background:new 0 0 1200 770;" xml:space="preserve">
<style type="text/css">
	.st0{fill:#100D23;}
	.st1{fill:url(#SVGID_1_);}
	.st2{fill:url(#SVGID_2_);}
	.st3{fill:url(#SVGID_3_);}
	.st4{fill:#FFFFFF;}
	.st5{fill:url(#SVGID_4_);}
	.st6{fill:url(#SVGID_5_);}
	.st7{fill:url(#SVGID_6_);}
	.st8{fill:url(#SVGID_7_);}
	.st9{fill:url(#SVGID_8_);}
	.st10{fill:url(#SVGID_9_);}
	.st11{fill:url(#SVGID_10_);}
	.st12{fill:url(#SVGID_11_);}
	.st13{fill:url(#SVGID_12_);}
</style>
<g>
	<linearGradient id="SVGID_1_" gradientUnits="userSpaceOnUse" x1="428.1803" y1="224.2406" x2="838.1732" y2="58.1528">
		<stop  offset="0" style="stop-color:#7879F6"/>
		<stop  offset="1" style="stop-color:#FBCBF5"/>
	</linearGradient>
	<path class="st1" d="M818.16,1.92l-67.58,158.44L498.63,261.02l-13.45,5.4c-84.91-53.87-98.15-91.53-98.35-92.14l111.66-44.6
		L818.16,1.92z"/>
	<g>
		<linearGradient id="SVGID_2_" gradientUnits="userSpaceOnUse" x1="790.2213" y1="501.921" x2="301.9407" y2="111.7752">
			<stop  offset="0" style="stop-color:#7879F6"/>
			<stop  offset="1" style="stop-color:#FBCBF5"/>
		</linearGradient>
		<path class="st2" d="M778.87,479.49l-1.09-3.75l-20.05-24.83l-14.94,4.5c-3,0.89-6,1.77-8.87,2.59c9.48,12,9.75,31.78,9.75,31.78
			c6.48-2.05,15.48,1.91,24.01,7.43c12,7.71,22.92,18.35,22.92,18.35L778.87,479.49z"/>
		<linearGradient id="SVGID_3_" gradientUnits="userSpaceOnUse" x1="772.3156" y1="524.3306" x2="284.0349" y2="134.1849">
			<stop  offset="0" style="stop-color:#7879F6"/>
			<stop  offset="1" style="stop-color:#FBCBF5"/>
		</linearGradient>
		<path class="st3" d="M748.45,439.45c-1.77-2.11-3.68-4.23-5.59-6.41c-26.12-29.19-62.54-61.25-112.61-89.89
			c-1.5-0.89-3-1.71-4.57-2.59c-3.55-1.98-7.09-3.96-10.78-5.87c-2.11-1.16-4.3-2.25-6.48-3.41l-7.78-3.89
			c-1.57-0.75-3.07-1.5-4.57-2.18c-2.86-1.36-5.73-2.73-8.59-4.09c-17.53-8.05-33.56-15.89-48.15-23.6
			c-1.36-0.68-2.66-1.36-4.02-2.05c-1.36-0.75-2.73-1.5-4.09-2.25c-2.25-1.16-4.5-2.39-6.62-3.55c-1.5-0.82-3-1.64-4.43-2.46
			c-2.32-1.3-4.57-2.59-6.82-3.82c-10.16-5.8-19.58-11.46-28.17-16.98c-84.92-53.88-98.15-91.53-98.35-92.15
			c0,0,8.32,102.44,63.77,161.58c0,0,48.84,4.57,79.05-5.93c0,0-22.99,19.78-70.05,15.35c1.09,1.36,19.78,22.78,51.22,44.06
			c0,0,19.57,6.21,89.35-16.16c-2.32,1.43-40.31,24.69-75.84,24.49l56.34,35.74c0,0,41.74,3.55,92.96-17.53
			c-1.16,1.36-21.08,22.78-69.98,24.14h-1.64c-1.09,0-2.18,0.07-3.27,0.07c0,0,0.07,0,0.14,0.07c0.07,0,0.2,0.14,0.48,0.27
			c0.14,0.14,0.34,0.27,0.55,0.34c0.2,0.14,0.48,0.27,0.75,0.48c0.61,0.34,1.36,0.75,2.32,1.3c10.91,5.59,43.17,18.42,98.49,8.87
			c11.12-1.84,23.19-4.71,36.22-8.66L748.45,439.45z"/>
	</g>
</g>
<g>
	<path class="st0" d="M86.3,738.83c-17.69,0-32.81-3.1-45.37-9.3c-12.56-6.2-22.11-15.82-28.64-28.88
		c-6.53-13.06-9.79-29.67-9.79-49.83c0-29.75,7.31-51.86,21.94-66.32c14.63-14.46,35.24-21.69,61.86-21.69
		c14.54,0,27.6,2.48,39.17,7.44c11.57,4.96,20.7,12.4,27.4,22.31s10.04,22.4,10.04,37.44h-37.19c0-7.93-1.61-14.63-4.83-20.08
		c-3.22-5.45-7.77-9.63-13.64-12.52c-5.87-2.89-12.69-4.34-20.45-4.34c-10.58,0-19.3,2.07-26.16,6.2
		c-6.86,4.13-11.9,10.21-15.12,18.22c-3.22,8.02-4.83,17.81-4.83,29.38v7.69c0,11.9,1.65,21.86,4.96,29.87
		c3.3,8.02,8.31,14.05,15,18.1c6.69,4.05,15.33,6.07,25.91,6.07c8.26,0,15.45-1.4,21.57-4.21c6.11-2.81,10.82-6.94,14.13-12.4
		c3.3-5.45,4.96-12.15,4.96-20.08h35.7c0,15.04-3.27,27.52-9.79,37.44c-6.53,9.92-15.58,17.32-27.15,22.19
		C114.4,736.39,101.18,738.83,86.3,738.83z"/>
	<path class="st0" d="M248.94,738.83c-14.22,0-26.28-2.44-36.2-7.31c-9.92-4.87-17.44-12.4-22.56-22.56
		c-5.13-10.17-7.69-22.93-7.69-38.31c0-15.7,2.56-28.55,7.69-38.55c5.12-10,12.64-17.44,22.56-22.32c9.92-4.87,21.98-7.31,36.2-7.31
		c14.54,0,26.73,2.44,36.57,7.31c9.83,4.88,17.31,12.32,22.44,22.32c5.12,10,7.69,22.85,7.69,38.55c0,15.37-2.56,28.14-7.69,38.31
		c-5.12,10.17-12.61,17.69-22.44,22.56C275.67,736.39,263.48,738.83,248.94,738.83z M248.94,712.05c7.6,0,13.67-1.4,18.22-4.21
		c4.54-2.81,7.89-7.1,10.04-12.89c2.15-5.78,3.22-12.89,3.22-21.32v-5.95c0-8.43-1.08-15.53-3.22-21.32
		c-2.15-5.78-5.5-10.12-10.04-13.02c-4.55-2.89-10.62-4.34-18.22-4.34c-7.44,0-13.43,1.45-17.97,4.34
		c-4.55,2.9-7.9,7.23-10.04,13.02c-2.15,5.79-3.22,12.89-3.22,21.32v5.95c0,8.43,1.07,15.54,3.22,21.32
		c2.15,5.79,5.49,10.08,10.04,12.89C235.51,710.65,241.5,712.05,248.94,712.05z"/>
	<path class="st0" d="M387.03,738.83c-10.75,0-20.04-2.44-27.89-7.31c-7.85-4.87-13.93-12.35-18.22-22.44
		c-4.3-10.08-6.45-22.97-6.45-38.68c0-15.7,2.19-28.55,6.57-38.55c4.38-10,10.41-17.4,18.1-22.19c7.69-4.79,16.57-7.19,26.65-7.19
		c5.62,0,10.87,0.62,15.74,1.86c4.87,1.24,9.17,3.18,12.89,5.82c3.72,2.65,6.9,5.87,9.55,9.67h1.49V556.6h34.46v179.25h-28.26
		l-2.73-17.6h-1.74c-4.3,6.94-9.92,12.11-16.86,15.49C403.4,737.13,395.62,738.83,387.03,738.83z M397.94,710.56
		c6.45,0,11.69-1.49,15.74-4.46c4.05-2.97,7.07-7.27,9.05-12.89c1.98-5.62,2.98-12.31,2.98-20.08v-4.46
		c0-5.78-0.54-11.07-1.61-15.87c-1.08-4.79-2.77-8.8-5.08-12.02c-2.32-3.22-5.21-5.7-8.68-7.44c-3.47-1.73-7.6-2.6-12.4-2.6
		c-6.94,0-12.48,1.36-16.61,4.09c-4.13,2.73-7.11,6.86-8.93,12.4c-1.82,5.54-2.73,12.44-2.73,20.7v5.7c0,8.27,0.91,15.12,2.73,20.58
		c1.82,5.45,4.79,9.55,8.93,12.27C385.46,709.2,391,710.56,397.94,710.56z"/>
	<path class="st0" d="M550.91,738.83c-14.38,0-26.45-2.44-36.2-7.31c-9.75-4.87-17.11-12.35-22.07-22.44
		c-4.96-10.08-7.44-22.89-7.44-38.43c0-15.7,2.48-28.55,7.44-38.55c4.96-10,12.27-17.44,21.94-22.32
		c9.67-4.87,21.53-7.31,35.58-7.31c13.22,0,24.38,2.36,33.47,7.07c9.09,4.71,15.95,11.99,20.58,21.82
		c4.63,9.84,6.94,22.52,6.94,38.06v8.93h-90.99c0.33,7.6,1.53,14.05,3.59,19.34c2.06,5.29,5.29,9.22,9.67,11.78
		c4.38,2.56,10.2,3.84,17.48,3.84c3.97,0,7.56-0.5,10.79-1.49c3.22-0.99,5.99-2.48,8.31-4.46c2.31-1.98,4.13-4.46,5.45-7.44
		c1.32-2.98,1.98-6.36,1.98-10.17h33.72c0,8.27-1.49,15.46-4.46,21.57c-2.98,6.12-7.11,11.2-12.4,15.25
		c-5.29,4.05-11.61,7.11-18.97,9.17C567.97,737.79,559.83,738.83,550.91,738.83z M520.66,656.51h55.04c0-4.96-0.62-9.25-1.86-12.89
		c-1.24-3.63-2.94-6.61-5.08-8.93c-2.15-2.31-4.75-4.01-7.81-5.08c-3.06-1.07-6.49-1.61-10.29-1.61c-6.28,0-11.53,1.03-15.74,3.1
		c-4.21,2.07-7.44,5.21-9.67,9.42S521.49,650.07,520.66,656.51z"/>
	<path class="st0" d="M801.07,768.08l-27.77-29.75c-1.16,0.16-2.4,0.29-3.72,0.37c-1.32,0.08-2.56,0.12-3.72,0.12
		c-17.69,0-32.94-3.26-45.74-9.79c-12.81-6.53-22.65-16.32-29.5-29.38c-6.86-13.05-10.29-29.34-10.29-48.84
		c0-20,3.47-36.49,10.41-49.46c6.94-12.97,16.94-22.64,30-29.01c13.05-6.36,28.59-9.55,46.61-9.55c18.35,0,34,3.18,46.98,9.55
		c12.98,6.36,22.93,16.03,29.88,29.01c6.94,12.98,10.41,29.47,10.41,49.46c0,20.66-3.8,37.6-11.41,50.82
		c-7.6,13.23-18.35,22.98-32.23,29.26l38.18,37.19H801.07z M767.35,708.58c8.1,0,15.2-1.15,21.32-3.47
		c6.11-2.31,11.24-5.78,15.37-10.41c4.13-4.63,7.27-10.29,9.42-16.98c2.14-6.7,3.22-14.34,3.22-22.93v-7.69
		c0-8.76-1.08-16.52-3.22-23.31c-2.15-6.77-5.29-12.43-9.42-16.98c-4.13-4.54-9.26-7.97-15.37-10.29
		c-6.12-2.31-13.23-3.47-21.32-3.47c-7.94,0-14.96,1.16-21.08,3.47c-6.12,2.32-11.24,5.75-15.37,10.29
		c-4.13,4.55-7.23,10.21-9.3,16.98c-2.07,6.78-3.1,14.55-3.1,23.31v7.69c0,8.6,1.03,16.24,3.1,22.93c2.06,6.69,5.16,12.36,9.3,16.98
		c4.13,4.63,9.25,8.1,15.37,10.41C752.39,707.43,759.41,708.58,767.35,708.58z"/>
	<path class="st0" d="M923.79,738.83c-13.23,0-23.72-3.63-31.49-10.91c-7.77-7.27-11.65-19.01-11.65-35.21v-87.27h34.46v81.57
		c0,4.3,0.5,7.89,1.49,10.78c0.99,2.9,2.44,5.25,4.34,7.07c1.9,1.82,4.25,3.14,7.06,3.97c2.81,0.83,5.95,1.24,9.42,1.24
		c5.12,0,9.75-1.24,13.88-3.72c4.13-2.48,7.35-5.91,9.67-10.29c2.31-4.38,3.47-9.3,3.47-14.75v-75.87h34.46v130.41h-28.26
		L968.17,718h-1.74c-3.14,4.13-6.82,7.77-11.03,10.91c-4.21,3.14-8.97,5.58-14.25,7.31C935.85,737.96,930.07,738.83,923.79,738.83z"
		/>
	<path class="st0" d="M1030.65,586.35V556.6h34.46v29.75H1030.65z M1030.65,735.85V605.44h34.46v130.41H1030.65z"/>
	<path class="st0" d="M1096.84,735.85V556.6h34.46v179.25H1096.84z"/>
	<path class="st0" d="M1163.04,735.85V556.6h34.46v179.25H1163.04z"/>
</g>
</svg>
